<svg width="34" height="43" viewBox="0 0 34 43" fill="none" xmlns="http://www.w3.org/2000/svg">
<mask id="path-1-outside-1_451_970" maskUnits="userSpaceOnUse" x="-3" y="-5" width="40" height="53" fill="black">
<rect fill="white" x="-3" y="-5" width="40" height="53"/>
<path d="M33.24 22.49L0.69 42.09V31.8L26.1 17.31L33.24 19.97V22.49ZM33.24 22.49L26.1 25.15L0.69 10.73V0.509996L33.24 19.97V22.49Z"/>
</mask>
<path d="M33.24 22.49L0.69 42.09V31.8L26.1 17.31L33.24 19.97V22.49ZM33.24 22.49L26.1 25.15L0.69 10.73V0.509996L33.24 19.97V22.49Z" fill="black"/>
<path d="M33.24 22.49L34.7875 25.06L36.24 24.1854V22.49H33.24ZM0.69 42.09H-2.31V47.3983L2.23755 44.66L0.69 42.09ZM0.69 31.8L-0.796097 29.1939L-2.31 30.0572V31.8H0.69ZM26.1 17.31L27.1473 14.4988L25.8326 14.009L24.6139 14.7039L26.1 17.31ZM33.24 19.97H36.24V17.8862L34.2873 17.1588L33.24 19.97ZM33.24 22.49L34.2873 25.3012L36.24 24.5738V22.49H33.24ZM26.1 25.15L24.6193 27.7591L25.8362 28.4497L27.1473 27.9612L26.1 25.15ZM0.69 10.73H-2.31V12.4769L-0.790669 13.3391L0.69 10.73ZM0.69 0.509995L2.22941 -2.06492L-2.31 -4.77881V0.509995H0.69ZM33.24 19.97H36.24V18.2683L34.7794 17.3951L33.24 19.97ZM31.6925 19.92L-0.857549 39.52L2.23755 44.66L34.7875 25.06L31.6925 19.92ZM3.69 42.09V31.8H-2.31V42.09H3.69ZM2.1761 34.4061L27.5861 19.9161L24.6139 14.7039L-0.796097 29.1939L2.1761 34.4061ZM25.0527 20.1212L32.1927 22.7812L34.2873 17.1588L27.1473 14.4988L25.0527 20.1212ZM30.24 19.97V22.49H36.24V19.97H30.24ZM32.1927 19.6788L25.0527 22.3388L27.1473 27.9612L34.2873 25.3012L32.1927 19.6788ZM27.5807 22.5409L2.17067 8.12086L-0.790669 13.3391L24.6193 27.7591L27.5807 22.5409ZM3.69 10.73V0.509995H-2.31V10.73H3.69ZM-0.849414 3.08492L31.7006 22.5449L34.7794 17.3951L2.22941 -2.06492L-0.849414 3.08492ZM30.24 19.97V22.49H36.24V19.97H30.24Z" fill="white" mask="url(#path-1-outside-1_451_970)"/>
</svg>
