<svg width="34" height="43" viewBox="0 0 34 43" fill="none" xmlns="http://www.w3.org/2000/svg">
<mask id="path-1-outside-1_451_971" maskUnits="userSpaceOnUse" x="-3" y="-5" width="40" height="53" fill="black">
<rect fill="white" x="-3" y="-5" width="40" height="53"/>
<path d="M7.83 25.29L0.69 22.56V20.04L33.24 0.509996V10.73L7.83 25.29ZM33.24 42.09L0.69 22.56V20.04L7.83 17.45L33.24 31.8V42.09Z"/>
</mask>
<path d="M7.83 25.29L0.69 22.56V20.04L33.24 0.509996V10.73L7.83 25.29ZM33.24 42.09L0.69 22.56V20.04L7.83 17.45L33.24 31.8V42.09Z" fill="black"/>
<path d="M7.83 25.29L6.75859 28.0922L8.08727 28.6002L9.32151 27.893L7.83 25.29ZM0.69 22.56H-2.31V24.6248L-0.381412 25.3622L0.69 22.56ZM0.69 20.04L-0.853487 17.4675L-2.31 18.3414V20.04H0.69ZM33.24 0.509995H36.24V-4.78858L31.6965 -2.06248L33.24 0.509995ZM33.24 10.73L34.7315 13.333L36.24 12.4686V10.73H33.24ZM33.24 42.09L31.6965 44.6625L36.24 47.3886V42.09H33.24ZM0.69 22.56H-2.31V24.2586L-0.853487 25.1325L0.69 22.56ZM0.69 20.04L-0.333009 17.2198L-2.31 17.937V20.04H0.69ZM7.83 17.45L9.30522 14.8378L8.10393 14.1594L6.80699 14.6298L7.83 17.45ZM33.24 31.8H36.24V30.0489L34.7152 29.1878L33.24 31.8ZM8.90141 22.4878L1.76141 19.7578L-0.381412 25.3622L6.75859 28.0922L8.90141 22.4878ZM3.69 22.56V20.04H-2.31V22.56H3.69ZM2.23349 22.6125L34.7835 3.08247L31.6965 -2.06248L-0.853487 17.4675L2.23349 22.6125ZM30.24 0.509995V10.73H36.24V0.509995H30.24ZM31.7485 8.12704L6.3385 22.687L9.32151 27.893L34.7315 13.333L31.7485 8.12704ZM34.7835 39.5175L2.23349 19.9875L-0.853487 25.1325L31.6965 44.6625L34.7835 39.5175ZM3.69 22.56V20.04H-2.31V22.56H3.69ZM1.71301 22.8602L8.85301 20.2702L6.80699 14.6298L-0.333009 17.2198L1.71301 22.8602ZM6.35478 20.0622L31.7648 34.4122L34.7152 29.1878L9.30522 14.8378L6.35478 20.0622ZM30.24 31.8V42.09H36.24V31.8H30.24Z" fill="white" mask="url(#path-1-outside-1_451_971)"/>
</svg>
