<svg width="606" height="374" viewBox="0 0 606 374" fill="none" xmlns="http://www.w3.org/2000/svg">
<g clip-path="url(#clip0_561_1077)">
<g clip-path="url(#clip1_561_1077)">
<path d="M151.573 178.451C147.154 158.96 137.946 153.77 135.597 150.103C134.628 148.486 133.77 146.807 133.029 145.075C132.904 146.807 132.676 147.898 131.204 149.211C128.25 151.846 115.698 162.073 114.643 184.219C113.658 204.867 129.822 217.6 131.958 218.916C133.6 219.724 135.6 218.933 136.575 218.192C144.367 212.844 155.013 198.588 151.582 178.451" fill="#10AA50"/>
<path d="M133.698 207.921C133.291 213.032 133 216.002 131.966 218.922C131.966 218.922 132.645 223.788 133.121 228.942H134.806C135.208 225.312 135.822 221.709 136.644 218.151C134.463 217.078 133.782 212.405 133.698 207.921Z" fill="#B8C4C2"/>
<path d="M136.641 218.154C134.437 217.135 133.799 212.365 133.701 207.921C134.246 200.59 134.405 193.235 134.177 185.887C134.062 182.032 134.232 150.178 133.228 145.514C133.915 147.094 134.706 148.625 135.597 150.1C137.946 153.77 147.158 158.96 151.573 178.451C155.013 198.553 144.425 212.772 136.641 218.154Z" fill="#12924F"/>
<path d="M427.248 211.106C426.305 211.106 425.382 210.827 424.596 210.304C423.81 209.781 423.197 209.037 422.832 208.166C422.467 207.295 422.369 206.336 422.549 205.409C422.728 204.482 423.177 203.629 423.84 202.957C424.503 202.284 425.35 201.823 426.275 201.632C427.199 201.439 428.159 201.525 429.035 201.877C429.911 202.229 430.663 202.832 431.197 203.611C431.731 204.389 432.024 205.308 432.037 206.253C432.054 206.889 431.942 207.522 431.709 208.114C431.475 208.707 431.123 209.246 430.676 209.699C430.229 210.153 429.695 210.511 429.106 210.753C428.517 210.994 427.885 211.115 427.248 211.106ZM427.248 201.964C426.386 201.958 425.541 202.209 424.821 202.684C424.101 203.159 423.538 203.836 423.203 204.631C422.869 205.426 422.778 206.303 422.942 207.149C423.105 207.996 423.518 208.775 424.124 209.389C424.731 210.001 425.506 210.42 426.352 210.592C427.197 210.764 428.075 210.681 428.873 210.354C429.671 210.026 430.354 209.47 430.835 208.754C431.317 208.039 431.575 207.196 431.578 206.333C431.589 205.76 431.485 205.189 431.272 204.657C431.059 204.124 430.741 203.64 430.337 203.233C429.934 202.826 429.452 202.503 428.921 202.285C428.391 202.067 427.822 201.958 427.248 201.964ZM428.403 209.346L427.168 206.683H426.172V209.346H425.447V203.286H427.234C428.565 203.286 429.118 203.863 429.118 204.98C429.118 205.868 428.7 206.423 427.921 206.593L429.197 209.337L428.403 209.346ZM426.201 206.056H427.248C428.097 206.056 428.42 205.767 428.42 204.994C428.42 204.221 428.111 203.958 427.157 203.958H426.201V206.056Z" fill="#21313C"/>
<path d="M355.993 206.743C357.289 207.779 359.878 208.206 362.161 208.206C365.118 208.206 368.019 207.658 370.853 205.098C373.738 202.475 375.724 198.461 375.724 192.052C375.724 185.893 373.381 180.895 368.573 177.968C365.861 176.262 362.345 175.59 358.336 175.59C357.183 175.59 355.993 175.651 355.318 175.957C355.041 176.176 354.845 176.48 354.761 176.823C354.64 177.919 354.64 186.271 354.64 191.209C354.64 196.271 354.64 203.329 354.761 204.195C354.824 204.928 355.194 206.216 355.993 206.755M343.688 172.849C344.735 172.849 348.719 173.031 350.571 173.031C354.034 173.031 356.426 172.849 362.899 172.849C368.325 172.849 372.89 174.312 376.155 177.114C380.102 180.531 382.215 185.284 382.215 191.076C382.215 199.307 378.463 204.062 374.691 206.743C370.94 209.548 366.059 211.133 359.107 211.133C355.408 211.133 349.056 211.011 343.754 210.951H343.645C343.396 210.464 344.098 208.562 344.531 208.512C345.974 208.35 346.355 208.293 347.019 208.019C348.138 207.56 348.401 206.989 348.525 204.978C348.709 201.196 348.649 196.686 348.649 191.564C348.649 187.907 348.709 180.773 348.589 178.517C348.401 176.629 347.604 176.142 345.991 175.775C344.847 175.532 343.691 175.349 342.528 175.226C342.407 174.86 343.353 173.207 343.662 172.849" fill="#21313C"/>
<path d="M397.495 175.943C397.25 176.003 396.94 176.615 396.94 176.918C396.878 179.114 396.817 184.842 396.817 188.805C396.832 188.881 396.87 188.95 396.924 189.004C396.98 189.058 397.05 189.096 397.125 189.111C397.925 189.172 399.899 189.235 401.564 189.235C403.907 189.235 405.264 188.928 406.003 188.562C407.977 187.587 408.888 185.451 408.888 183.137C408.888 177.832 405.188 175.821 399.702 175.821C398.961 175.812 398.219 175.853 397.484 175.943M411.48 200.328C411.48 194.963 407.532 191.916 400.318 191.916C400.011 191.916 397.72 191.855 397.174 191.977C396.99 192.036 396.805 192.158 396.805 192.282C396.805 196.124 396.742 202.279 396.929 204.718C397.054 205.754 397.795 207.217 398.716 207.643C399.702 208.192 401.922 208.313 403.463 208.313C407.717 208.313 411.48 205.938 411.48 200.328ZM386.356 172.955C386.912 172.955 388.551 173.137 392.745 173.137C396.69 173.137 399.896 173.016 403.711 173.016C408.458 173.016 414.992 174.724 414.992 181.795C414.992 185.258 412.528 188.075 409.321 189.417C409.136 189.477 409.136 189.598 409.321 189.659C413.883 190.813 417.889 193.621 417.889 198.986C417.889 204.229 414.623 207.523 409.876 209.595C406.989 210.876 403.402 211.3 399.774 211.3C397.001 211.3 389.568 211.011 385.435 211.058C385.002 210.876 385.83 208.922 386.2 208.619C387.147 208.59 388.085 208.443 388.996 208.18C390.474 207.817 390.649 207.34 390.835 205.145C390.958 203.254 390.958 196.487 390.958 191.67C390.958 185.084 391.022 180.637 390.958 178.442C390.898 176.736 390.28 176.185 389.108 175.882C388.185 175.698 386.644 175.515 385.412 175.334C385.103 175.027 386.053 173.198 386.358 172.955" fill="#21313C"/>
<path d="M165.226 211.107C165.067 210.717 165.003 210.294 165.039 209.874C165.025 209.588 165.089 209.304 165.226 209.053C166.023 208.938 166.814 208.777 167.592 208.57C168.684 208.299 169.093 207.704 169.157 206.314C169.335 203.026 169.348 196.86 169.284 192.525V192.398C169.284 191.93 169.284 191.295 168.706 190.848C167.692 190.211 166.591 189.725 165.437 189.405C164.92 189.252 164.635 188.981 164.649 188.664C164.663 188.346 164.989 187.971 165.662 187.838C167.448 187.656 172.129 186.539 173.968 185.691C174.156 185.937 174.244 186.248 174.213 186.557C174.213 186.747 174.184 186.949 174.164 187.157C174.112 187.769 174.054 188.465 174.054 189.157C174.065 189.241 174.099 189.32 174.154 189.386C174.208 189.451 174.279 189.501 174.359 189.528C174.44 189.555 174.526 189.56 174.609 189.54C174.691 189.521 174.767 189.479 174.828 189.419C178.328 186.675 181.465 185.697 183.072 185.697C185.718 185.697 187.779 186.961 189.375 189.563C189.412 189.627 189.464 189.679 189.527 189.716C189.589 189.753 189.66 189.773 189.733 189.775C189.799 189.774 189.864 189.757 189.922 189.726C189.98 189.695 190.031 189.65 190.068 189.595C193.286 187.154 196.474 185.697 198.61 185.697C203.654 185.697 206.67 189.475 206.67 195.797C206.67 197.615 206.653 199.921 206.635 202.071C206.621 203.958 206.606 205.728 206.606 206.951C206.606 207.239 207.004 208.071 207.602 208.235C208.341 208.596 209.406 208.78 210.753 209.011H210.805C210.906 209.375 210.693 210.786 210.488 211.075C210.154 211.075 209.692 211.046 209.114 211.017C208.067 210.966 206.63 210.894 204.959 210.894C201.606 210.894 199.853 210.957 198.18 211.067C198.052 210.648 198.009 209.298 198.163 209.014C198.856 208.907 199.542 208.757 200.217 208.567C201.285 208.216 201.593 207.73 201.66 206.314C201.686 205.307 201.88 196.432 201.536 194.326C201.218 192.141 199.574 189.584 195.975 189.584C194.639 189.584 192.483 190.141 190.428 191.699C190.301 191.844 190.229 192.029 190.226 192.222V192.265C190.469 193.402 190.469 194.73 190.469 196.735C190.469 197.89 190.469 199.093 190.454 200.297C190.44 202.744 190.428 205.052 190.469 206.798C190.469 207.987 191.187 208.273 191.767 208.501C192.082 208.57 192.33 208.631 192.581 208.689C193.063 208.807 193.565 208.928 194.313 209.046C194.423 209.554 194.413 210.079 194.284 210.581C194.253 210.77 194.179 210.949 194.067 211.104C192.203 211.04 190.29 210.985 187.528 210.985C186.692 210.985 185.326 211.02 184.12 211.052C183.141 211.078 182.218 211.104 181.693 211.107C181.551 210.772 181.487 210.408 181.508 210.045C181.479 209.702 181.546 209.358 181.701 209.053L182.443 208.917C183.09 208.801 183.65 208.703 184.174 208.57C185.087 208.282 185.43 207.786 185.497 206.622C185.675 203.91 185.814 196.092 185.43 194.135C184.778 190.995 182.992 189.403 180.117 189.403C178.434 189.403 176.308 190.213 174.571 191.515C174.403 191.678 174.271 191.873 174.184 192.089C174.096 192.305 174.054 192.537 174.06 192.77C174.06 193.702 174.06 194.81 174.06 195.999C174.06 199.924 174.034 204.81 174.129 206.922C174.186 207.574 174.417 208.348 175.638 208.631C175.907 208.708 176.369 208.784 176.905 208.873C177.214 208.925 177.552 208.98 177.9 209.043C178.012 209.734 177.956 210.442 177.737 211.107C177.2 211.107 176.539 211.072 175.782 211.04C174.629 210.989 173.185 210.925 171.555 210.925C169.627 210.925 168.285 210.989 167.209 211.04C166.484 211.075 165.858 211.104 165.231 211.107" fill="#21313C"/>
<path d="M227.114 188.306C226.072 188.284 225.047 188.572 224.17 189.134C222.029 190.436 220.938 193.035 220.938 196.857C220.938 204.008 224.519 209.003 229.648 209.003C231.022 209.047 232.364 208.572 233.405 207.672C234.98 206.389 235.817 203.762 235.817 200.085C235.817 193.041 232.317 188.306 227.108 188.306M228.095 211.655C218.831 211.655 215.532 204.859 215.532 198.502C215.532 194.06 217.348 190.588 220.929 188.179C223.438 186.626 226.317 185.775 229.266 185.714C236.334 185.714 241.272 190.796 241.272 198.077C241.272 203.023 239.301 206.931 235.569 209.372C233.777 210.469 230.663 211.655 228.095 211.655Z" fill="#21313C"/>
<path d="M321.424 188.306C320.38 188.282 319.352 188.57 318.474 189.134C316.333 190.436 315.242 193.035 315.242 196.857C315.242 204.008 318.823 209.003 323.952 209.003C325.33 209.05 326.677 208.575 327.72 207.672C329.296 206.389 330.13 203.762 330.13 200.085C330.13 193.041 326.633 188.306 321.424 188.306ZM322.41 211.655C313.147 211.655 309.849 204.859 309.849 198.504C309.849 194.057 311.664 190.588 315.248 188.179C317.754 186.625 320.633 185.774 323.582 185.714C330.65 185.714 335.588 190.799 335.588 198.074C335.588 203.026 333.616 206.931 329.885 209.37C328.092 210.469 324.979 211.655 322.41 211.655Z" fill="#21313C"/>
<path d="M290.233 188.064C287.379 188.064 285.532 190.317 285.532 193.806C285.532 197.295 287.122 201.442 291.592 201.442C292.36 201.442 293.751 201.102 294.44 200.343C295.479 199.387 296.172 197.413 296.172 195.33C296.172 190.779 293.956 188.064 290.248 188.064M289.878 212.143C289.071 212.134 288.277 212.333 287.57 212.72C285.31 214.163 284.262 215.606 284.262 217.283C284.262 218.853 284.871 220.102 286.181 221.21C287.769 222.555 289.91 223.21 292.724 223.21C298.262 223.21 300.743 220.232 300.743 217.283C300.743 215.228 299.713 213.851 297.592 213.072C295.959 212.475 293.228 212.146 289.887 212.146M290.256 226.286C286.932 226.286 284.536 225.585 282.49 224.009C280.499 222.474 279.604 220.194 279.604 218.619C279.626 217.603 280.014 216.63 280.695 215.877C281.272 215.219 282.614 213.987 285.716 211.854C285.765 211.834 285.805 211.8 285.834 211.756C285.863 211.713 285.878 211.661 285.878 211.609C285.879 211.551 285.86 211.494 285.825 211.447C285.789 211.401 285.739 211.369 285.682 211.356C283.128 210.377 282.358 208.758 282.124 207.892C282.124 207.86 282.124 207.811 282.098 207.757C282.026 207.416 281.957 207.093 282.421 206.761C282.778 206.506 283.35 206.166 283.962 205.805C284.825 205.327 285.654 204.789 286.441 204.192C286.483 204.147 286.515 204.092 286.533 204.033C286.55 203.973 286.554 203.911 286.545 203.849C286.535 203.788 286.51 203.73 286.475 203.68C286.438 203.628 286.391 203.587 286.337 203.557C282.557 202.287 280.652 199.48 280.652 195.189C280.64 193.851 280.951 192.529 281.559 191.337C282.167 190.145 283.054 189.116 284.144 188.34C285.665 187.137 289.483 185.691 291.956 185.691H292.1C294.642 185.751 296.077 186.285 298.063 187.018C299.191 187.427 300.388 187.617 301.589 187.578C303.693 187.578 304.614 186.912 305.404 186.136C305.532 186.485 305.6 186.854 305.606 187.227C305.654 188.114 305.413 188.993 304.919 189.731C304.489 190.328 303.477 190.761 302.55 190.761C302.455 190.761 302.362 190.761 302.261 190.747C301.774 190.713 301.29 190.632 300.818 190.508L300.582 190.591C300.507 190.701 300.555 190.822 300.616 190.978C300.631 191.008 300.642 191.041 300.651 191.074C300.82 191.843 300.934 192.625 300.994 193.411C300.994 197.898 299.225 199.852 297.312 201.301C295.462 202.689 293.265 203.539 290.963 203.759C290.914 203.759 290.675 203.78 290.224 203.82C289.935 203.846 289.56 203.881 289.506 203.881H289.451C289.036 203.996 287.95 204.513 287.95 205.474C287.95 206.27 288.441 207.26 290.787 207.439L292.305 207.546C295.399 207.762 299.263 208.031 301.081 208.645C302.287 209.069 303.329 209.863 304.057 210.913C304.787 211.963 305.166 213.216 305.141 214.494C305.141 218.521 302.279 222.307 297.485 224.621C295.225 225.701 292.75 226.256 290.245 226.246" fill="#21313C"/>
<path d="M276.075 208.96C274.719 208.778 273.729 208.593 272.56 208.046C272.331 207.807 272.18 207.505 272.127 207.18C272.003 205.289 272.003 199.803 272.003 196.213C272.003 193.284 271.513 190.729 270.272 188.898C268.791 186.823 266.696 185.604 263.983 185.604C261.579 185.604 258.373 187.249 255.724 189.506C255.66 189.567 255.253 189.953 255.262 189.353C255.271 188.753 255.363 187.535 255.421 186.756C255.447 186.549 255.424 186.339 255.353 186.142C255.283 185.946 255.168 185.769 255.017 185.625C253.285 186.491 248.429 187.645 246.63 187.821C245.32 188.075 244.989 189.336 246.388 189.772H246.408C247.529 190.081 248.598 190.551 249.582 191.169C250.137 191.595 250.076 192.205 250.076 192.692C250.137 196.775 250.137 203.055 249.953 206.469C249.892 207.812 249.52 208.299 248.532 208.544L248.625 208.513C247.873 208.701 247.111 208.843 246.342 208.939C246.033 209.242 246.033 211.011 246.342 211.378C246.96 211.378 250.094 211.197 252.69 211.197C256.263 211.197 258.114 211.378 259.039 211.378C259.413 210.951 259.533 209.306 259.288 208.939C258.434 208.901 257.586 208.779 256.757 208.573C255.773 208.331 255.525 207.84 255.464 206.747C255.343 203.878 255.343 197.782 255.343 193.636C255.343 192.482 255.649 191.93 256.018 191.616C257.251 190.519 259.288 189.789 261.074 189.789C262.806 189.789 263.961 190.338 264.826 191.068C265.834 191.948 266.466 193.181 266.592 194.514C266.838 196.822 266.774 201.466 266.774 205.48C266.774 207.675 266.592 208.227 265.789 208.469C265.42 208.651 264.434 208.836 263.262 208.957C262.893 209.324 263.013 211.029 263.262 211.396C264.864 211.396 266.725 211.213 269.426 211.213C272.817 211.213 274.975 211.396 275.838 211.396C276.208 210.968 276.332 209.375 276.087 208.957" fill="#21313C"/>
</g>
</g>
<defs>
<clipPath id="clip0_561_1077">
<rect width="606" height="374" fill="white"/>
</clipPath>
<clipPath id="clip1_561_1077">
<rect width="547" height="374.02" fill="white"/>
</clipPath>
</defs>
</svg>
